<svg xmlns="http://www.w3.org/2000/svg" viewBox="0 0 180.85 25.68"><defs><style>.a{fill:#0075be}.b{fill:#eb6608}</style></defs><path class="a" d="M18.473 25.62h5.935l-2.664-7.692zM33.25 0h-3.755l-7.51 17.443 2.6 7.692 1.514-3.695 5.027-13.2 4.24 12.84 1.454 4.542h5.269z"/><path class="b" d="M24.469 25.619L15.687 0h-4.6L0 25.619h6.3c1.332-4.179 5.935-6.783 9.569-8.358l2.6 8.358zm-14.9-8.176l3.573-8.964 2.3 7.45a33.062 33.062 0 0 0-5.875 1.514m69.351-9.145l-1.393 10.357-5.754-10.357h-3.272l-2.3 17.382h3.876l1.393-10.357 5.693 10.236.061.061h3.21l2.367-17.322z"/><path class="b" d="M92.604 8.298l-4.179 6.844-2.6-6.844h-4.121l4.482 10.236-.969 7.086h3.816l.969-6.965 6.902-10.357z"/><path class="a" d="M109.079 8.298l-5.935 8.9-3.513-8.9h-3.575l-2.3 17.322h3.876l1.272-9.63 2.544 5.875h2.6l3.876-5.814-1.332 9.569h3.876l2.366-17.322zm31.193 4.724c-.121-1.393-.969-4.724-5.754-4.724h-6.846l-2.3 17.322h3.876l.969-6.9h2.423l2.847 6.9h4.24l-3.331-7.328a5.14 5.14 0 0 0 3.876-5.269m-4.421 1.938a3.063 3.063 0 0 1-2.3.848h-3.028l.606-4.421h3.089a1.982 1.982 0 0 1 2.241 1.817 2.7 2.7 0 0 1-.606 1.756"/><path class="a" d="M156.503 8.298h-4.845l-7.086 7.147.969-7.147h-3.818l-2.3 17.322h3.816l.666-5.269 2.6-2.483 4 7.752h4.24l-5.33-10.054z"/><path class="a" d="M167.949 11.387l.363-3.089h-12.235l-2.3 17.322h12.416l.424-3.089h-8.54l.545-4.058h7.207l.424-3.149h-7.207l.484-3.876z"/><path class="a" d="M167.526 8.298l-.424 3.089h4.845l-1.938 14.233h3.876l1.878-14.233h4.724l.363-3.089z"/><path class="b" d="M67.047 25.68L62.626 8.358h-3.029l-8.3 15.808c-.545 1.03-.727 1.454-.727 1.454h4.361c.969-3.028 4.3-4.724 6.9-5.754l1.272 5.754h3.937zm-9.63-5.693l3.089-6.3 1.151 5.33a23.168 23.168 0 0 0-4.24.969"/><path class="a" d="M126.159 25.62l-4.421-17.322h-3.028l-7.995 15.323a8.292 8.292 0 0 0-1.393 2h4.6c.969-3.028 4.421-4.845 7.026-5.875l1.272 5.875zm-9.509-5.754l2.968-6.117 1.151 5.209a18.069 18.069 0 0 0-4.118.908"/></svg>