<svg xmlns="http://www.w3.org/2000/svg" viewBox="0 0 180.848 25.682"><path d="M29.481 0L29.4.165l-7.434 17.342-.165.413L15.69 0h-4.624L0 25.6h6.276c1.321-4.129 5.946-6.771 9.579-8.34l2.56 8.34v.083l.085-.083h5.946l-2.23-6.441.248-.33 2.147 6.359 1.486-3.633L31.132 8.34l4.294 12.8 1.4 4.542h5.285L33.279 0zM9.579 17.424l3.551-8.918 2.312 7.432a31.858 31.858 0 0 0-5.863 1.486zm158.716-9.166h-16.68l-7.019 7.1.991-7.1h-3.8l-2.23 16.846-3.138-6.854a5.056 5.056 0 0 0 3.881-5.285c-.162-1.407-.99-4.707-5.779-4.707h-6.854l-2.064 15.195-3.965-15.195h-3.055l-7.928 15.195 2.065-15.195h-3.716l-5.946 8.919-3.468-8.919h-7.019l-4.212 6.854-2.642-6.854H78.78l-1.4 10.322-5.784-10.322h-3.058l-2.062 15.195-3.881-15.195h-3.057l-8.257 15.855c-.5 1.074-.743 1.486-.743 1.486h4.377c.991-3.055 4.294-4.707 6.937-5.781l1.239 5.781h6.937l1.4-10.322 5.7 10.322.083.083h3.221l2.064-15.442 3.633 8.34-.991 7.1h3.881l.908-6.937 5.863-8.836-2.064 15.69h3.881l1.321-9.662 2.56 5.946h2.56l3.881-5.781-1.321 9.5h7.267c.991-3.055 4.459-4.872 7.019-5.863l1.321 5.863h7.023l.991-6.854h2.477l2.89 6.854h7.762l.661-5.285 2.56-2.477 4.046 7.762h15.607l.413-3.055h-8.507l.578-4.129h7.184l.413-3.055h-7.184l.5-3.964h12.3l-1.982 14.2h3.881l1.9-14.2h4.71l.409-3.139zM57.392 19.984l3.055-6.276 1.156 5.285a26.372 26.372 0 0 0-4.211.991zm59.209-.165l2.973-6.111 1.156 5.2a18.011 18.011 0 0 0-4.129.911zm16.929-4.046h-3.055l.578-4.377h3.055a1.953 1.953 0 0 1 2.23 1.817 2.231 2.231 0 0 1-.578 1.734 2.756 2.756 0 0 1-2.23.826zm15.855-.165l6.606-6.854-2.064 15.442z" fill="#fff"/></svg>